<?xml version="1.0" encoding="UTF-8" standalone="no"?>
<!-- Created with Inkscape (http://www.inkscape.org/) -->

<svg
   version="1.0"
   width="809.60608"
   height="195.77768"
   id="svg2"
   xmlns="http://www.w3.org/2000/svg"
   xmlns:svg="http://www.w3.org/2000/svg">
  <defs
     id="defs4" />
  <g
     transform="translate(299.54775,384.90763)"
     id="layer1">
    <g
       transform="translate(35.433051,35.377598)"
       id="g4899">
      <path
         d="m -334.9808,-420.28523 h 809.59864 v 15.35 H -334.9808 Z"
         id="path4494"
         style="fill:#6a717f;fill-opacity:1;fill-rule:nonzero;stroke:none" />
      <path
         d="m -334.9808,-239.85008 h 809.56882 v 15.34254 H -334.9808 Z"
         id="path4496"
         style="fill:#6a717f;fill-opacity:1;fill-rule:nonzero;stroke:none" />
      <path
         d="m 351.7955,-397.2416 h 122.82979 v 42.2479 h -33.29435 v 107.12941 H 384.96312 V -354.9937 H 351.7955 v -42.2479"
         id="path4500"
         style="fill:#6a717f;fill-opacity:1;fill-rule:nonzero;stroke:none" />
      <path
         d="m 267.32951,-397.2416 v 149.37731 h 102.35071 v -44.5217 H 323.60786 V -397.2416 h -56.27835"
         id="path4504"
         style="fill:#6a717f;fill-opacity:1;fill-rule:nonzero;stroke:none" />
      <path
         d="M 152.06662,-397.26396 H 213.899 l 47.39936,149.39968 h -55.07063 l -5.64349,-22.73798 h -34.5319 l -5.12909,22.73798 h -57.49353 z m 21.66444,93.42698 h 19.18191 l -9.37103,-43.50035 -9.81088,43.50035"
         id="path4508"
         style="fill:#6a717f;fill-opacity:1;fill-rule:nonzero;stroke:none" />
      <path
         d="M 122.38797,-397.26396 H 67.376981 l -15.349997,72.94044 -16.647179,-72.94044 h -48.629446 l -15.685475,72.94044 -15.014518,-72.94044 h -54.943894 l 41.070001,149.39968 h 51.0076147 l 17.1541243,-72.89571 17.601429,72.89571 h 52.237702 l 42.210627,-149.40714"
         id="path4512"
         style="fill:#6a717f;fill-opacity:1;fill-rule:nonzero;stroke:none" />
      <path
         d="m -179.88545,-365.27424 h 81.94617 v 30.74472 h -39.66099 v 12.75564 h 34.5319 v 30.75217 h -34.5319 v 12.74818 h 39.66099 v 30.40925 h -81.94617 v -117.40996"
         id="path4516"
         style="fill:#6a717f;fill-opacity:1;fill-rule:nonzero;stroke:none" />
      <path
         d="m -334.94353,-247.86429 v -149.39968 h 69.98078 c 41.33093,0 74.19289,22.50687 74.19289,75.0055 0,51.08962 -31.81825,74.39418 -74.46128,74.39418 z m 57.76937,-44.7379 c 17.72816,0 29.44008,-7.44762 29.44008,-30.14832 0,-24.92231 -11.60755,-31.57223 -29.32826,-31.57223 h -4.52523 v 61.72055 h 4.41341"
         id="path4520"
         style="fill:#6a717f;fill-opacity:1;fill-rule:nonzero;stroke:none" />
      <path
         d="m 448.95002,-260.3068 c 0,-7.02268 5.69568,-12.20396 12.42761,-12.20396 6.67229,0 12.36797,5.18128 12.36797,12.20396 0,7.08978 -5.69568,12.27105 -12.36797,12.27105 -6.73193,0 -12.42761,-5.18127 -12.42761,-12.27105 z m 12.42761,10.23582 c 5.53912,0 9.90779,-4.33886 9.90779,-10.23582 0,-5.79259 -4.36867,-10.16127 -9.90779,-10.16127 -5.59131,0 -9.96744,4.36868 -9.96744,10.16127 0,5.89696 4.37613,10.23582 9.96744,10.23582 z m -2.38563,-8.64043 h 2.00542 l 2.66892,4.50286 h 3.04912 l -3.13859,-4.68924 c 2.11725,-0.26093 3.56353,-1.56557 3.56353,-4.13757 0,-2.15451 -1.6923,-3.7499 -5.09182,-3.7499 h -5.39747 v 12.57671 h 2.34089 z m 0,-2.10979 v -4.04065 h 2.72856 c 1.52084,0 3.2355,0.0969 3.2355,1.95323 0,2.11724 -1.38664,2.08742 -3.24295,2.08742 H 458.992"
         id="path4524"
         style="fill:#6a717f;fill-opacity:1;fill-rule:nonzero;stroke:none" />
    </g>
  </g>
</svg>
