<?xml version="1.0" encoding="UTF-8" standalone="no"?>
<svg
   class="svg svg-logo"
   width="1013.088"
   height="107.55549"
   viewBox="-0.564 -0.564 176.39407 18.809002"
   version="1.1"
   id="svg2"
   xmlns="http://www.w3.org/2000/svg"
   xmlns:svg="http://www.w3.org/2000/svg">
  <defs
     id="defs2" />
  <path
     d="m 155.43088,17.882 h 20.781 V 3.686 Z m 9.192,-14.196 -12.233,14.196 15.414,-10.519 z m -12.234,0 v 11.592 l 6.295,-7.301 z"
     style="fill:#6a717f;fill-opacity:1;fill-rule:nonzero;stroke:none;stroke-opacity:1"
     id="path1" />
  <path
     d="M 36.077877,4.895 V 3.686 h -3.357 v 14.196 h 3.385 v -7.79 c 0,-2.142 1.22,-3.526 3.108,-3.526 0.75,0 1.58,0.178 2.144,0.454 l 0.802,-3.343 c -0.662,-0.24 -1.365,-0.352 -2.254,-0.352 -1.608,0 -2.921,0.54 -3.828,1.57 m 39.864,10.136 c -2.348,0 -3.988,-1.746 -3.988,-4.246 0,-2.502 1.64,-4.248 3.988,-4.248 2.349,0 3.987,1.746 3.987,4.248 0,2.5 -1.638,4.246 -3.987,4.246 m 3.8,-9.861 c -0.916,-1.15 -2.189,-1.845 -4.16,-1.845 -4.048,0 -7.099,3.207 -7.099,7.46 0,4.251 3.051,7.458 7.099,7.458 1.961,0 3.229,-0.682 4.16,-1.878 v 1.517 h 3.386 V 3.686 h -3.386 z m 26.844003,9.861 c -2.347,0 -3.986,-1.746 -3.986,-4.246 0,-2.502 1.639,-4.248 3.986,-4.248 2.348,0 3.988,1.746 3.988,4.248 0,2.5 -1.64,4.246 -3.988,4.246 m 3.8,-9.861 c -0.916,-1.15 -2.19,-1.845 -4.161,-1.845 -4.045,0 -7.098003,3.207 -7.098003,7.46 0,4.251 3.053003,7.458 7.098003,7.458 1.961,0 3.229,-0.682 4.161,-1.878 v 1.517 h 3.386 V 3.686 h -3.386 z m 29.74,9.861 c -2.347,0 -3.987,-1.746 -3.987,-4.246 0,-2.502 1.64,-4.248 3.987,-4.248 2.348,0 3.988,1.746 3.988,4.248 0,2.5 -1.64,4.246 -3.988,4.246 m 3.799,-9.861 c -0.915,-1.15 -2.188,-1.845 -4.16,-1.845 -4.046,0 -7.098,3.207 -7.098,7.46 0,4.251 3.052,7.458 7.098,7.458 1.962,0 3.229,-0.682 4.16,-1.878 v 1.517 h 3.386 V 3.686 h -3.386 z m -19.978,9.861 c -2.348,0 -3.988,-1.746 -3.988,-4.246 0,-2.501 1.64,-4.248 3.988,-4.248 2.347,0 3.987,1.747 3.987,4.248 0,2.5 -1.64,4.246 -3.987,4.246 m 0.361,-11.706 c -1.677,0 -3.1,0.584 -4.147,1.695 v -5.58400001 h -3.385 V 17.882 h 3.385 v -1.516 c 0.925,1.234 2.38,1.879 4.147,1.879 4.046,0 7.096,-3.208 7.096,-7.46 0,-4.252 -3.05,-7.46 -7.096,-7.46 M 99.626877,3.687 h -4.291 l -4.562,5.254 h -1.246 v -9.50500001 h -3.4 V 17.881 h 3.4 v -5.83 h 1.228 l 4.605,5.83 h 4.295 l -5.988,-7.495 5.959,-6.7 z m -38.68,-0.361 c -1.604,0 -3.753,0.41 -5.054,2.316 -1.035,-1.476 -2.757,-2.316 -4.776,-2.316 -1.223,0 -2.869,0.306 -4.059,1.691 V 3.686 h -3.371 v 14.196 h 3.4 v -7.848 c 0,-2.395 1.705,-3.468 3.395,-3.468 1.929,0 3.035,1.254 3.035,3.439 v 7.878 h 3.399 v -7.85 c 0,-2.394 1.706,-3.467 3.396,-3.467 1.929,0 3.035,1.254 3.035,3.439 v 7.878 h 3.399 V 9.009 c 0,-3.347 -2.384,-5.684 -5.8,-5.684 m -37.801,11.706 c -2.402,0 -4.145,-1.786 -4.145,-4.246 0,-2.461 1.743,-4.248 4.145,-4.248 2.411,0 4.161,1.787 4.161,4.248 0,2.46 -1.75,4.246 -4.16,4.246 m 0,-11.706 c -4.343,0 -7.618,3.207 -7.618,7.46 0,4.251 3.275,7.458 7.617,7.458 4.351,0 7.633,-3.207 7.633,-7.458 0,-4.253 -3.282,-7.46 -7.633,-7.46 M 6.5038773,15.031 c -2.347,0 -3.986,-1.746 -3.986,-4.246 0,-2.501 1.64,-4.248 3.987,-4.248 2.347,0 3.9869997,1.747 3.9869997,4.248 0,2.5 -1.6399997,4.246 -3.9869997,4.246 M 10.304877,5.045 C 9.2548773,3.917 7.8268773,3.325 6.1438773,3.325 c -4.048,0 -7.09799998,3.207 -7.09799998,7.46 0,4.251 3.05099998,7.459 7.09799998,7.459 2.1,0 3.166,-0.713 4.1599997,-1.88 v 1.518 h 3.386 V -0.56400001 h -3.385 z"
     style="fill:#6a717f;fill-opacity:1;fill-rule:nonzero;stroke:none;stroke-opacity:1"
     id="path2" />
</svg>
