<?xml version="1.0" encoding="UTF-8" standalone="no"?>
<!-- Created with Inkscape (http://www.inkscape.org/) -->

<svg
   width="567.46875"
   height="566.27539"
   version="1.1"
   fill-rule="evenodd"
   id="svg8"
   xmlns="http://www.w3.org/2000/svg"
   xmlns:svg="http://www.w3.org/2000/svg">
  <defs
     id="defs8" />
  <path
     d="M 284.32813,3.75e-7 C 127.29507,3.75e-7 5e-7,126.10365 -5e-7,283.13671 -5e-7,438.98159 127.29507,566.27539 284.32813,566.27539 c 155.8422,0 283.14062,-127.2938 283.14062,-283.13868 C 567.46875,126.10365 440.17033,3.7500001e-7 284.32813,3.75e-7 Z m 0,23.792967625 c 77.22278,0 146.44198,34.114698 193.71875,88.033202 H 89.537108 C 136.94833,57.907666 206.46041,23.792968 284.32813,23.792968 Z M 105.88086,155.84765 h 403.34375 c 21.18008,37.64768 33.26172,81.09892 33.26172,127.28906 0,142.76141 -115.40224,258.15821 -258.1582,258.15821 -16.06243,0 -31.76926,-1.43614 -47,-4.1875 43.06389,-45.80127 -15.06431,-135.28464 -30.32617,-156.41992 v -60.67383 l 13.08398,2.38086 c 0,38.07178 17.84844,61.86328 35.69141,61.86328 33.31095,0 59.48046,-47.58399 59.48046,-47.58399 0,11.89667 3.56836,33.30664 3.56836,33.30664 5.94766,22.60516 22.60584,7.13693 26.17579,3.56836 8.32537,-8.32675 39.25781,-69 39.25781,-69 0,0 -1.19336,63.05549 -1.19336,71.38086 0,7.13992 4.76172,7.14063 4.76172,7.14063 h 10.70312 c 3.56995,0 7.14063,-7.14063 7.14063,-7.14063 0,0 2.37856,-8.32502 4.76172,-16.65039 2.37632,-8.33348 29.73813,-72.57135 32.11718,-74.95312 l 2.38282,-1.18946 c 0,0 -5.9514,73.75821 -2.38282,88.03125 2.38177,14.27844 13.08985,10.70899 13.08985,10.70899 28.5501,-4.75814 39.25195,-49.9668 39.25195,-49.9668 0,0 -3.56377,-16.65539 -14.26953,-2.37695 l -8.33008,9.51562 c -4.76083,7.13855 -4.75976,1.18555 -4.75976,1.18555 -1.18818,-8.32536 7.13867,-101.11719 7.13867,-101.11719 0,-4.75542 -3.56694,-5.94523 -4.75782,-7.13476 -2.38043,0 -11.89979,-2.38003 -14.27343,-3.57227 -8.32944,0 -10.70703,7.13867 -10.70703,7.13867 -7.13991,11.89938 -33.3125,66.625 -33.3125,66.625 0,0 2.3789,-55.91802 2.3789,-64.24609 0,-7.13719 -5.94922,-7.13672 -5.94922,-7.13672 l -7.13476,-1.1875 c -11.89668,-2.37906 -11.89649,7.13867 -11.89649,7.13867 -7.13853,30.93053 -42.83203,90.41016 -42.83203,90.41016 0,1.1936 -1.18547,1.19352 -2.375,-1.18555 -2.38042,-7.14125 4.75781,-89.22461 4.75781,-89.22461 0,-5.95036 -4.75781,-5.95117 -4.75781,-5.95117 -4.75813,-2.38042 -9.51862,-2.37974 -14.27539,-1.1875 -3.57131,0 -5.94726,11.89601 -5.94726,19.0332 -5.95036,60.67694 -13.0881,60.67727 -19.03711,70.18946 -4.75812,9.52032 -20.22329,36.88281 -38.07032,36.88281 -16.6548,0 -16.65625,-33.31445 -16.65625,-33.31445 v -1.1875 c 29.74371,-1.19494 49.96875,-30.92969 49.96875,-30.92969 21.41156,-34.50183 0,-54.72852 0,-54.72852 -14.27709,-14.27573 -39.25976,-3.5664 -39.25976,-3.5664 -29.741,13.08349 -39.25781,65.42773 -39.25781,65.42773 l -13.08789,-2.375 c 0,0 6.8e-4,-97.55547 -1.1875,-115.39844 0,-17.84433 -26.17579,-16.65344 -26.17579,0 l 0.74024,100.62696 c -12.54226,-4.48116 -11.49287,-21.10758 -12.63477,-25.67774 0,-5.94901 -9.51741,-4.75932 -11.89648,-2.3789 -3.56859,3.56859 -3.56836,13.08593 -3.56836,13.08593 0,24.75952 19.86144,40.1692 28.32226,45.07618 l 0.22852,31.06054 -95.171872,-161.79297 c -4.75948,-9.51896 -0.001,-23.78906 19.035152,-23.78906 z m -54.220704,12.54492 c 2.952069,9.71165 13.769531,26.71289 13.769531,26.71289 L 179.63867,387.82617 V 519.56054 C 88.301397,479.62054 24.984375,388.8856 24.984375,283.13671 c 0,-41.1432 9.584859,-80.11312 26.675781,-114.74414 z m 280.253904,0.53711 c -7.13854,0 -13.08984,5.94995 -13.08984,13.08985 0,15.46256 20.22836,22.60073 22.60742,23.79297 1.18683,0 21.41073,4.75437 30.92969,-2.38282 9.51896,-7.13854 2.37811,-13.08593 -5.94727,-13.08593 -11.89667,-1.18953 -17.84343,-9.51659 -20.22656,-13.0879 -2.3777,-3.56454 -7.13488,-8.32617 -14.27344,-8.32617 z m -51.84375,83.42578 c 5.47398,0.15852 9.91715,3.66934 7.82618,14.125 -1.18953,9.51896 -19.03278,29.74151 -34.49805,30.92969 0,0 -4.3e-4,-30.92897 15.46484,-41.63476 2.67594,-1.7843 6.52401,-3.23379 10.09961,-3.40821 0.37246,-0.0182 0.74249,-0.0223 1.10742,-0.0117 z M 204.6211,429.46679 c 15.46526,11.89667 22.60547,45.20172 22.60546,61.86328 0,30.93053 -14.27929,27.36133 -14.27929,27.36133 0,0 -8.32617,-4.1e-4 -8.32617,-9.52344 z"
     style="fill:#6a717f;fill-opacity:1"
     id="path9" />
</svg>
