<?xml version="1.0" encoding="UTF-8" standalone="no"?>
<!-- Created with Inkscape (http://www.inkscape.org/) -->

<svg
   version="1.1"
   id="svg1"
   width="367.90332"
   height="54.854805"
   viewBox="0 0 367.90332 54.854806"
   sodipodi:docname="Hikoki.svg"
   inkscape:version="1.4.1 (93de688d07, 2025-03-30)"
   xmlns:inkscape="http://www.inkscape.org/namespaces/inkscape"
   xmlns:sodipodi="http://sodipodi.sourceforge.net/DTD/sodipodi-0.dtd"
   xmlns="http://www.w3.org/2000/svg"
   xmlns:svg="http://www.w3.org/2000/svg">
  <sodipodi:namedview
     id="namedview1"
     pagecolor="#ffffff"
     bordercolor="#000000"
     borderopacity="0.25"
     inkscape:showpageshadow="2"
     inkscape:pageopacity="0.0"
     inkscape:pagecheckerboard="true"
     inkscape:deskcolor="#d1d1d1"
     inkscape:zoom="2.0290657"
     inkscape:cx="285.59943"
     inkscape:cy="27.106072"
     inkscape:window-width="1670"
     inkscape:window-height="907"
     inkscape:window-x="0"
     inkscape:window-y="0"
     inkscape:window-maximized="1"
     inkscape:current-layer="g1" />
  <defs
     id="defs1" />
  <g
     id="g1"
     transform="translate(-42.656689,-29.222124)">
    <path
       style="fill:#6a717f;fill-opacity:1"
       d="m 250.12174,83.816798 c -9.50001,-1.086112 -12.81336,-4.4526 -12.74798,-12.952411 0.0577,-7.496185 3.25204,-19.674283 7.33824,-27.976007 1.89293,-3.845759 2.40131,-4.592704 4.70512,-6.913112 3.93722,-3.965593 8.19127,-5.749336 15.54288,-6.517203 4.12498,-0.430849 26.75397,-0.229119 29.44,0.262448 5.5874,1.022543 8.32075,2.662436 9.94837,5.968609 0.93953,1.908452 1.06055,2.477957 1.18898,5.594906 0.22155,5.377391 -1.016,12.094153 -3.78162,20.524597 -4.90577,14.954224 -10.84897,20.590802 -23.19573,21.998998 -3.10292,0.3539 -25.3602,0.361081 -28.43826,0.0092 z m 26.92559,-14.583962 c 3.1413,-0.977499 5.40378,-3.754877 7.07896,-8.689999 1.33172,-3.923267 2.32859,-8.254277 2.48188,-10.782838 0.18389,-3.033148 -0.3503,-4.395912 -2.12817,-5.429114 -1.04811,-0.609107 -1.65404,-0.650886 -9.44,-0.650886 -6.26299,0 -8.6298,0.109361 -9.57307,0.442334 -1.56237,0.551513 -3.73781,2.528096 -4.82588,4.384749 -1.08457,1.850674 -2.86401,7.323642 -3.67491,11.302791 -1.50279,7.374321 -0.37127,9.468134 5.3904,9.974658 4.32345,0.380087 12.70833,0.0652 14.69079,-0.551695 z M 46.324778,69.519999 c 2.017449,-7.524 5.207512,-19.44 7.089028,-26.48 L 56.834744,30.24 67.493281,30.155641 c 8.483083,-0.06714 10.627191,-0.0018 10.504956,0.32 C 77.780582,31.048697 73.28,47.880134 73.28,48.121072 c 0,0.10941 6.671834,0.198927 14.826296,0.198927 h 14.826294 l 2.33147,-8.712234 c 1.28231,-4.791729 2.40188,-8.895729 2.48794,-9.12 0.22688,-0.59125 21.34307,-0.599007 21.13719,-0.0078 -0.0766,0.22 -3.28593,12.171999 -7.13182,26.559999 l -6.99252,26.16 h -10.50243 c -7.365153,0 -10.502419,-0.104173 -10.502419,-0.348733 0,-0.191803 1.008,-4.097299 2.24,-8.67888 1.232,-4.581581 2.24,-8.456651 2.24,-8.611267 0,-0.157445 -6.5169,-0.28112 -14.813217,-0.28112 H 68.613567 l -2.38498,8.96 -2.38498,8.96 H 53.250147 42.656688 Z m 79.188002,13.28 c 0.0777,-0.22 3.28882,-12.172 7.13585,-26.56 L 139.64322,30.08 h 10.56239 c 5.89136,0 10.42795,0.121301 10.25839,0.274294 -0.1672,0.150862 -5.88417,4.124897 -12.70439,8.831188 -6.82021,4.706292 -12.48071,8.68686 -12.57888,8.845706 -0.10476,0.16949 4.12603,0.288811 10.24039,0.288811 5.73038,0 10.41888,0.08213 10.41888,0.182517 0,0.248172 -8.58305,32.350792 -8.99877,33.657483 l -0.33086,1.04 h -10.56942 c -8.31754,0 -10.53933,-0.08522 -10.42817,-0.4 z m 39.43112,-0.48 c 0.25349,-1.045887 13.5685,-50.867681 13.81162,-51.679999 0.15522,-0.518605 0.94662,-0.56 10.70605,-0.56 5.79613,0 10.53443,0.108 10.52953,0.24 -0.005,0.132 -1.00159,3.911299 -2.21489,8.398443 -1.21329,4.487144 -2.17468,8.189748 -2.13642,8.22801 0.0383,0.03826 4.93741,-3.589944 10.88699,-8.062679 9.37196,-7.045578 11.03763,-8.179547 12.46533,-8.486231 1.08301,-0.232642 5.5587,-0.320316 13.05662,-0.255764 l 11.40873,0.09822 -16.76838,12.626863 -16.76838,12.626863 1.07883,1.133137 c 0.59335,0.623225 6.37255,6.821136 12.84266,13.773136 l 11.76383,12.64 -12.06649,0.08387 c -10.43407,0.07252 -12.21011,0.01572 -13.12807,-0.419881 -0.61527,-0.291967 -4.80955,-4.530601 -9.97652,-10.082026 -4.90322,-5.268051 -8.98694,-9.577521 -9.07494,-9.5766 -0.088,9.21e-4 -1.08161,3.492091 -2.20802,7.758155 -1.12642,4.266065 -2.33094,8.800481 -2.67672,10.076481 l -0.6287,2.32 h -10.55797 -10.55797 z m 138.61979,-0.8 c 0.26173,-0.924 3.46441,-12.84 7.11706,-26.48 L 317.32195,30.24 327.96392,30.15566 c 10.12144,-0.08022 10.63303,-0.05618 10.45923,0.491398 -0.56607,1.783555 -4.35291,16.169016 -4.27556,16.242072 0.0508,0.04801 4.94035,-3.561605 10.86561,-8.021367 7.27233,-5.473662 11.18777,-8.220291 12.04896,-8.452184 0.82866,-0.223135 5.40798,-0.314096 13.0668,-0.259551 L 381.92,30.24 367.68,40.94457 c -15.89743,11.9505 -19.2,14.456135 -19.2,14.566882 0,0.04181 5.7541,6.252838 12.78688,13.802283 l 12.78689,13.726264 -11.74689,0.09487 c -7.77865,0.06282 -12.15197,-0.02251 -12.94605,-0.252597 -0.98664,-0.285883 -2.79879,-2.060843 -10.22469,-10.014867 -4.96403,-5.317072 -9.11533,-9.707045 -9.22511,-9.755497 -0.10978,-0.04845 -1.41217,4.451548 -2.89421,10 l -2.69461,10.088094 h -10.61719 -10.61719 z m 71.79631,1.54268 c 0,-0.07553 3.168,-11.965732 7.04,-26.42268 3.872,-14.456947 7.04,-26.347153 7.04,-26.422679 0,-0.07553 4.752,-0.13732 10.56,-0.13732 5.808,0 10.56,0.110692 10.56,0.245982 0,0.182117 -9.45202,35.625256 -13.73782,51.514017 l -0.36685,1.36 h -10.54766 c -5.80122,0 -10.54767,-0.06179 -10.54767,-0.13732 z"
       id="path1" />
  </g>
</svg>
